<?xml version="1.0" encoding="UTF-8" standalone="no"?>
<!-- Created with Inkscape (http://www.inkscape.org/) -->

<svg
   xmlns:dc="http://purl.org/dc/elements/1.1/"
   xmlns:cc="http://creativecommons.org/ns#"
   xmlns:rdf="http://www.w3.org/1999/02/22-rdf-syntax-ns#"
   xmlns:svg="http://www.w3.org/2000/svg"
   xmlns="http://www.w3.org/2000/svg"
   xmlns:sodipodi="http://sodipodi.sourceforge.net/DTD/sodipodi-0.dtd"
   xmlns:inkscape="http://www.inkscape.org/namespaces/inkscape"
   id="svg2"
   version="1.1"
   inkscape:version="0.48.5 r10040"
   width="60"
   height="60"
   xml:space="preserve"
   sodipodi:docname="logo.pdf"><metadata
     id="metadata8"><rdf:RDF><cc:Work
         rdf:about=""><dc:format>image/svg+xml</dc:format><dc:type
           rdf:resource="http://purl.org/dc/dcmitype/StillImage" /><dc:title></dc:title></cc:Work></rdf:RDF></metadata><defs
     id="defs6" /><sodipodi:namedview
     pagecolor="#ffffff"
     bordercolor="#666666"
     borderopacity="1"
     objecttolerance="10"
     gridtolerance="10"
     guidetolerance="10"
     inkscape:pageopacity="0"
     inkscape:pageshadow="2"
     inkscape:window-width="1366"
     inkscape:window-height="710"
     id="namedview4"
     showgrid="false"
     inkscape:zoom="5.5625733"
     inkscape:cx="0.026869285"
     inkscape:cy="18.161474"
     inkscape:window-x="0"
     inkscape:window-y="27"
     inkscape:window-maximized="1"
     inkscape:current-layer="layer2" /><g
     inkscape:groupmode="layer"
     id="layer2"
     inkscape:label="Layer"><path
       sodipodi:type="arc"
       style="color:#000000;fill:#ffffff;fill-opacity:1;fill-rule:nonzero;stroke:none;stroke-width:20;marker:none;visibility:visible;display:inline;overflow:visible;enable-background:accumulate"
       id="path3771"
       sodipodi:cx="-53.482441"
       sodipodi:cy="12.090519"
       sodipodi:rx="11.954899"
       sodipodi:ry="11.954899"
       d="m -41.527542,12.090519 a 11.954899,11.954899 0 1 1 -23.909798,0 11.954899,11.954899 0 1 1 23.909798,0 z"
       transform="matrix(2.417419,0,0,2.417419,159.28948,0.86214932)"
       inkscape:export-filename="/home/marios/geekshubs/dingweather/icons/icon48x48.png"
       inkscape:export-xdpi="74.739998"
       inkscape:export-ydpi="74.739998" /></g><g
     id="g10"
     inkscape:groupmode="layer"
     inkscape:label="logo"
     transform="matrix(1.25,0,0,-1.25,0,60)"><g
       id="g12"><path
         d="M 47.199,23.926 C 47.199,11.113 36.812,0.727 24,0.727 11.188,0.727 0.801,11.113 0.801,23.926 c 0,12.816 10.387,23.203 23.199,23.203 12.812,0 23.199,-10.387 23.199,-23.203 z m -8.558,4.156 c -1.172,3.109 -4.172,5.324 -7.692,5.324 -0.808,0 -1.59,-0.121 -2.332,-0.336 -2.004,3.235 -5.586,5.391 -9.672,5.391 C 12.75,38.461 7.707,33.5 7.574,27.336 5.309,26.023 3.781,23.57 3.781,20.77 c 0,-4.188 3.399,-7.582 7.582,-7.582 l 1.266,0 0,2.527 -1.27,0 c -2.785,0 -5.05,2.262 -5.05,5.055 0,2.39 1.664,4.398 3.902,4.921 -0.074,0.454 -0.109,0.918 -0.109,1.395 0,4.887 3.957,8.848 8.843,8.848 3.996,0 7.371,-2.653 8.469,-6.289 0.973,0.773 2.199,1.234 3.535,1.234 2.926,0 5.34,-2.215 5.653,-5.055 l 0.039,0 c 2.785,0 5.05,-2.265 5.05,-5.054 0,-2.79 -2.261,-5.055 -5.05,-5.055 l -1.551,0 C 34.891,14.828 34.586,13.98 34.191,13.188 l 2.446,0 c 4.183,0 7.582,3.402 7.582,7.582 0,3.492 -2.364,6.433 -5.578,7.312 z M 24,11.922 c -2.395,0 -4.477,1.336 -5.551,3.297 l 1.762,1.758 -5.055,0 0,-5.055 1.453,1.453 C 18.191,10.98 20.91,9.395 24,9.395 c 4.453,0 8.141,3.296 8.754,7.582 l -2.563,0 C 29.609,14.094 27.059,11.922 24,11.922 z m 0,15.164 c -4.457,0 -8.145,-3.293 -8.754,-7.582 l 2.563,0 c 0.586,2.883 3.132,5.055 6.191,5.055 2.395,0 4.477,-1.332 5.551,-3.293 l -1.762,-1.762 5.055,0 0,5.055 -1.453,-1.454 C 29.809,25.504 27.086,27.086 24,27.086 z"
         style="fill:#ff6600;fill-opacity:1;fill-rule:nonzero;stroke:none"
         id="path14" /></g></g></svg>